<svg id="Layer_1" enable-background="new 0 0 511.999 511.999" height="512" viewBox="0 0 511.999 511.999" width="512" xmlns="http://www.w3.org/2000/svg"><g><g><path d="m194.574 89.993c3.338 1.315 6.825 1.973 10.306 1.973 3.804 0 7.602-.784 11.192-2.348 6.862-2.988 12.146-8.467 14.877-15.427 1.513-3.856-.386-8.209-4.241-9.722-3.855-1.515-8.208.386-9.722 4.241-1.267 3.227-3.718 5.768-6.903 7.154-3.203 1.394-6.757 1.455-10.01.173-3.853-1.518-8.208.373-9.728 4.228-1.518 3.854.376 8.209 4.229 9.728z"/><path d="m310.409 88.384c7.182 0 14.363-2.733 19.831-8.2 2.929-2.93 2.929-7.678 0-10.607-2.93-2.928-7.678-2.928-10.607 0-5.086 5.085-13.36 5.087-18.446 0-2.93-2.928-7.678-2.928-10.607 0-2.929 2.93-2.929 7.678 0 10.607 5.466 5.467 12.648 8.2 19.829 8.2z"/><path d="m317.995 226.999c-2.202-3.511-6.833-4.567-10.339-2.368-2.365 1.484-6.987 1.49-9.331.011-3.504-2.211-8.135-1.162-10.346 2.34-2.211 3.503-1.163 8.135 2.34 10.346 3.603 2.272 8.126 3.409 12.653 3.409 4.52 0 9.042-1.133 12.654-3.398 3.51-2.203 4.571-6.832 2.369-10.34z"/><path d="m217.812 224.641c-2.343 1.479-6.965 1.474-9.331-.011-3.508-2.201-8.137-1.141-10.339 2.368-2.201 3.509-1.141 8.138 2.368 10.339 3.612 2.266 8.134 3.398 12.654 3.398 4.527 0 9.051-1.137 12.652-3.409 3.503-2.211 4.551-6.843 2.34-10.346-2.209-3.5-6.841-4.55-10.344-2.339z"/><path d="m269.202 284.667c-6.466 2.771-17.813 2.771-24.28 0-3.806-1.632-8.217.133-9.848 3.939-1.632 3.808.132 8.216 3.939 9.848 5.145 2.205 11.597 3.307 18.049 3.307 6.451 0 12.903-1.102 18.048-3.307 3.808-1.632 5.571-6.04 3.939-9.848-1.631-3.807-6.039-5.571-9.847-3.939z"/><path d="m422.193 429.526c-.943-15.681-7.676-29.579-20.068-41.549-.338-.4-.72-.772-1.152-1.104-.078-.06-.147-.132-.225-.193-.496-.458-.998-.913-1.51-1.365-2.936-2.967-4.853-6.992-5.446-11.586-.746-5.783.733-11.568 4.07-15.888 11.62-15.119 8.811-36.897-6.272-48.553-4.14-3.188-6.788-7.806-7.456-13.002-.67-5.197.722-10.344 3.909-14.482 5.653-7.316 8.114-16.396 6.929-25.564-.878-6.786-3.678-13.019-8.044-18.093 5.666-10.112 7.652-22.245 4.362-31.747-2.259-6.525-6.717-11.029-12.651-13.042v-15.04c0-16.544-3.088-32.491-9.176-47.499.465-.386.925-.782 1.375-1.192 7.639-6.954 12.107-16.469 12.583-26.773.347-7.188-1.294-14.206-4.69-20.375 7.278-6.813 11.719-16.244 12.203-26.412.981-21.298-15.524-39.425-36.78-40.407-11.46-.557-22.456 4.034-30.128 12.27-4.351-2.197-9.131-3.452-14.119-3.681-7.36-.365-14.459 1.572-20.488 5.427-5.78-7.472-14.438-12.408-24.099-13.436-6.081-9.59-16.424-15.678-27.963-16.2-18.309-.832-34.044 12.572-36.376 30.35-8.279 2.46-15.419 7.954-19.949 15.264-3.836-1.655-7.963-2.609-12.242-2.81-19.276-.886-35.734 14.073-36.67 33.411-.301 6.849 1.337 13.456 4.689 19.207-5.964 6.089-9.594 14.229-10.017 22.924-.436 9.35 2.799 18.312 9.11 25.234 1.65 1.81 3.461 3.417 5.398 4.821-2.475 9.749-3.745 19.771-3.745 29.878v15.04c-5.934 2.013-10.392 6.517-12.651 13.042-3.29 9.504-1.303 21.639 4.356 31.745-4.371 5.075-7.174 11.309-8.049 18.098-1.18 9.164 1.284 18.242 6.933 25.553 6.602 8.57 5.014 20.904-3.548 27.5-15.074 11.648-17.884 33.426-6.252 48.562 3.326 4.304 4.805 10.089 4.06 15.872-.586 4.545-2.463 8.537-5.345 11.495-14.3 12.57-22.039 27.38-23.051 44.218l-.936 13.096c-.295 4.131 2.815 7.72 6.947 8.015.182.014.362.02.542.02 3.898 0 7.191-3.016 7.473-6.966l.941-13.18c1.739-28.901 29.627-45.787 59.255-56.708 15.447-5.694 46.591-13.661 46.591-13.661 9.43-2.399 10.838-9.278 10.838-13.165v-9.954c10.589 5.559 21.228 8.939 30.76 8.938h3.357c9.532 0 20.171-3.381 30.76-8.94v9.957c0 3.896 1.41 10.787 10.825 13.161 0 0 37.467 9.586 55.543 17.176 11.505 4.831 22.346 10.694 31.005 17.964 1.202 1.285 2.504 2.479 3.91 3.562.026.02.056.033.083.053 8.759 8.553 14.554 18.897 15.315 31.55l3.376 65.986c.014.233.023.445.029.638-.278.01-.597.016-.96.016h-36.011v-43.807c0-7.184-5.844-13.028-13.027-13.028h-84.811c-4.143 0-7.5 3.357-7.5 7.5s3.357 7.5 7.5 7.5h82.838v41.835h-201.108v-41.835h83.631c4.142 0 7.5-3.357 7.5-7.5s-3.358-7.5-7.5-7.5h-85.604c-7.183 0-13.027 5.845-13.027 13.028v43.807h-36.011c-.363 0-.682-.006-.96-.016.007-.208.017-.439.032-.694l.85-16.81c.209-4.137-2.975-7.66-7.111-7.869-4.124-.228-7.66 2.975-7.869 7.111l-.847 16.753c-.239 4.104-.024 8.785 3.376 12.389 3.439 3.645 8.263 4.136 12.529 4.136h303.129c4.266 0 9.091-.491 12.529-4.136 3.4-3.604 3.615-8.285 3.379-12.336zm-51.054-222.365c3.226 0 4.957 1.201 5.977 4.146 2.007 5.797.031 15.393-5.28 22.667-.197.203-.387.416-.565.646-.172.223-.327.454-.471.689-1.188 1.444-2.505 2.783-3.973 3.938-2.002 1.584-4.215 2.716-6.658 3.428.791-4.988 1.221-9.853 1.236-14.474.156-2.526.154-5.913.146-17.469l-.002-3.57h9.59zm-17.092-15c-31.48 0-65.382-14.896-90.684-39.849-2.922-2.881-7.613-2.881-10.533 0-16.101 15.88-35.623 27.741-56.452 34.299-11.548 3.631-23.385 5.55-34.231 5.55h-9.592v-13.845c0-8.061.914-16.059 2.711-23.87 1.607.302 3.244.499 4.906.577.562.027 1.121.04 1.68.04 9.991 0 19.392-4.282 25.952-11.53 6.475 4.49 14.219 6.964 22.22 6.964 15.827 0 29.826-9.672 35.862-23.682 4.356 2.628 9.339 4.166 14.515 4.397 5.565.264 11.083-.985 15.968-3.582 4.992 2.766 10.559 4.341 16.347 4.603 8.104.388 15.985-1.838 22.581-6.261 6.836 8.104 16.827 13.163 27.719 13.688 4.518.21 8.957-.358 13.162-1.649 4.949 12.759 7.463 26.282 7.463 40.304v13.845h-9.594zm-202.956-89.097c1.886-1.199 3.139-3.177 3.417-5.396.279-2.218-.447-4.444-1.979-6.072-3.74-3.977-5.667-9.192-5.427-14.653.52-10.741 9.417-19.141 20.043-19.141.313 0 .628.008.944.022 4.28.199 8.292 1.715 11.6 4.383 1.957 1.577 4.573 2.072 6.968 1.313 2.396-.757 4.253-2.663 4.948-5.078 2.253-7.835 9.211-13.618 17.315-14.393 4.022-.384 7.018-3.886 6.773-7.919-.039-.64-.039-1.274.005-2.032.515-11.034 9.935-19.59 20.968-19.078 7.521.341 14.152 4.817 17.306 11.683 1.269 2.762 4.094 4.483 7.115 4.363.516-.021 1.053-.021 1.524-.003 7.955.381 14.938 5.428 17.791 12.857.945 2.459 3.11 4.243 5.705 4.698 2.59.456 5.237-.483 6.964-2.474 4.069-4.694 9.942-7.204 16.127-6.917 4.369.2 8.441 1.765 11.777 4.523 1.673 1.384 3.862 1.975 6.006 1.62 2.142-.355 4.025-1.621 5.163-3.47 4.528-7.362 12.692-11.682 21.299-11.263 13.01.602 23.104 11.696 22.505 24.721-.375 7.853-4.61 14.992-11.331 19.101-1.875 1.146-3.153 3.059-3.496 5.23s.284 4.384 1.716 6.052c3.901 4.548 5.89 10.367 5.599 16.4-.291 6.314-3.025 12.135-7.698 16.39-4.67 4.253-10.718 6.447-17.018 6.144-8.63-.416-16.342-5.487-20.125-13.234-1.097-2.245-3.24-3.797-5.716-4.138-2.471-.339-4.958.573-6.622 2.439-4.543 5.097-11.024 7.829-17.846 7.505-4.567-.206-8.886-1.767-12.487-4.511-2.719-2.074-6.498-2.044-9.188.074-3.03 2.388-6.799 3.596-10.642 3.416-4.542-.203-8.784-2.356-11.638-5.907-2.055-2.558-5.533-3.481-8.587-2.284-.642.252-1.292.484-1.934.69-2.739.88-4.733 3.249-5.133 6.098-1.655 11.784-11.879 20.671-23.781 20.671-6.853 0-13.403-2.955-17.973-8.106-1.651-1.861-4.118-2.785-6.585-2.46-2.468.323-4.614 1.85-5.729 4.074-3.552 7.083-10.948 11.426-18.855 11.035-5.349-.249-10.283-2.567-13.894-6.528-3.61-3.96-5.461-9.085-5.212-14.415.319-6.53 3.802-12.523 9.318-16.03zm-12.013 108.242c1.02-2.944 2.751-4.146 5.977-4.146h9.589l-.001 3.57c-.008 11.556-.011 14.942.146 17.469.015 4.623.445 9.489 1.237 14.479-2.449-.712-4.665-1.848-6.674-3.444-8.971-7.058-12.823-20.565-10.274-27.928zm71.58 134.333-1.844.472c-19.697 5.038-46.673 11.939-69.576 24.099-.562.298-1.11.602-1.662.904.064-8.173-2.515-16.153-7.353-22.414-6.593-8.579-5.003-20.932 3.534-27.529 15.105-11.637 17.917-33.407 6.261-48.539-3.203-4.146-4.6-9.286-3.931-14.474.374-2.901 1.389-5.614 2.921-8.012.343.29.688.577 1.04.854 5.601 4.451 12.175 6.947 19.6 7.463 2.299 7.697 5.362 15.423 9.107 22.805 8.196 16.117 24.152 33.621 41.902 46.342v18.029zm47.841-14.797c-.268-.014-.537-.014-.805 0-21.795 1.161-61.311-28.336-75.565-56.367-7.843-15.457-12.341-32.414-12.341-46.524 0-.17-.006-.339-.017-.508-.139-2.049-.137-5.741-.129-16.701l.002-3.86c10.18-.681 20.834-2.692 31.236-5.963 20.857-6.567 40.504-17.903 57.22-32.965 25.353 22.809 57.519 36.957 88.45 38.952l.002 3.835c.007 10.96.01 14.652-.129 16.701-.012.169-.018.338-.018.508 0 14.111-4.498 31.068-12.338 46.519-14.257 28.039-53.842 57.537-75.568 56.373zm127.483 17.842c-4.848 6.274-7.428 14.256-7.364 22.43-.552-.302-1.1-.606-1.662-.904-22.902-12.159-49.879-19.061-69.576-24.099l-1.844-.472v-18.031c17.751-12.722 33.709-30.226 41.906-46.346 3.744-7.38 6.807-15.105 9.105-22.801 7.406-.52 13.972-3.009 19.57-7.438.359-.282.711-.575 1.06-.871 1.528 2.398 2.543 5.11 2.918 8.011.671 5.189-.722 10.328-3.929 14.478-11.649 15.124-8.837 36.895 6.26 48.523 8.548 6.604 10.137 18.957 3.556 27.52z"/><path d="m117.321 45.91c0-16.89-13.741-30.63-30.63-30.63s-30.63 13.74-30.63 30.63 13.741 30.631 30.63 30.631 30.63-13.742 30.63-30.631zm-30.63 15.631c-8.618 0-15.63-7.012-15.63-15.631 0-8.618 7.012-15.63 15.63-15.63s15.63 7.012 15.63 15.63c0 8.619-7.012 15.631-15.63 15.631z"/><path d="m43.237 120.303c-16.889 0-30.63 13.74-30.63 30.63s13.741 30.631 30.63 30.631c16.89 0 30.63-13.741 30.63-30.631s-13.741-30.63-30.63-30.63zm0 46.261c-8.618 0-15.63-7.012-15.63-15.631 0-8.618 7.012-15.63 15.63-15.63 8.619 0 15.63 7.012 15.63 15.63 0 8.619-7.012 15.631-15.63 15.631z"/><path d="m460.4 21.26c-21.516 0-39.021 17.492-39.021 38.993s17.505 38.993 39.021 38.993c21.5 0 38.992-17.492 38.992-38.993s-17.492-38.993-38.992-38.993zm0 62.987c-13.245 0-24.021-10.764-24.021-23.993s10.776-23.994 24.021-23.994c13.229 0 23.992 10.764 23.992 23.993s-10.763 23.994-23.992 23.994z"/><path d="m452.35 133.569c-17.077 0-30.971 13.894-30.971 30.971 0 17.062 13.894 30.942 30.971 30.942 17.062 0 30.941-13.881 30.941-30.942 0-17.077-13.88-30.971-30.941-30.971zm0 46.913c-8.807 0-15.971-7.151-15.971-15.942 0-8.807 7.164-15.971 15.971-15.971 8.79 0 15.941 7.164 15.941 15.971 0 8.791-7.151 15.942-15.941 15.942z"/></g></g></svg>