<svg id="Capa_1" enable-background="new 0 0 512 512" height="512" viewBox="0 0 512 512" width="512" xmlns="http://www.w3.org/2000/svg"><g><g><path d="m471.276 350.446c-.107-.081-11.358-8.138-33.619-11.253-4.097-.563-7.881 2.282-8.455 6.379-.573 4.097 2.283 7.881 6.379 8.455 11.15 1.56 18.911 4.533 23.157 6.54-.915 5.002-3.309 14.018-9.548 25.163-8.976 16.034-27.956 39.865-67.399 62.339-11.919 6.792-26.43 12.776-41.964 17.308-20.705 6.042-40.311 7.514-58.275 4.364-8.499-1.488-15.275-3.484-21.323-6.281-.322-.148-.644-.3-.967-.457.062-.353.125-.703.191-1.05 1.252-6.547 3.579-13.217 7.32-20.99 7.908-16.43 20.526-31.511 37.501-44.82 12.735-9.985 26.054-18.291 38.517-24.021 21.012-9.66 41.185-15.74 59.957-18.072 4.104-.509 7.018-4.251 6.508-8.355-.51-4.105-4.246-7.019-8.355-6.508-2.856.354-5.741.797-8.649 1.309 15.129-50.943-.789-79.625-1.003-79.996-1.212-2.094-3.36-3.472-5.769-3.703-1.639-.156-29.845-2.357-66.302 24.351v-51.768c0-16.409-7.039-32.067-19.311-42.96l-30.544-27.11v-34.92h20.015c9.082 0 16.469-7.388 16.469-16.469v-17.114c0-7.654-5.255-14.085-12.342-15.925v-55.314c.001-10.79-8.777-19.568-19.566-19.568h-101.684c-4.136 0-7.489 3.353-7.489 7.489s3.353 7.489 7.489 7.489h101.684c2.531 0 4.589 2.06 4.589 4.59v54.77h-200.07v-54.77c0-2.531 2.06-4.59 4.59-4.59h55.151c4.137 0 7.489-3.353 7.489-7.489s-3.352-7.489-7.489-7.489h-55.151c-10.789 0-19.568 8.778-19.568 19.568v55.315c-7.086 1.839-12.34 8.271-12.34 15.924v17.114c0 9.082 7.388 16.469 16.469 16.469h20.014v34.919l-30.543 27.11c-12.272 10.892-19.311 26.55-19.311 42.96v243.953c0 21.322 17.346 38.667 38.666 38.667h204.117c17.146 0 31.709-11.222 36.756-26.705 8.73-1.047 17.66-2.885 26.755-5.539 16.64-4.854 32.265-11.312 45.184-18.673 84.091-47.915 85.064-104.084 85.064-104.646 0-2.355-1.109-4.576-2.995-5.99zm-117.559-71.97c11.772-4.961 20.997-6.337 26.053-6.69 1.648 4.811 3.967 13.851 3.969 26.631.002 11.182-1.838 26.709-8.542 45.902-12.544 3.394-25.47 8.13-38.661 14.194-2.601 1.196-5.234 2.495-7.886 3.886l11.393-17.174c.659.022 1.357.038 2.11.038 6.475 0 16.104-1.013 23.285-6.152 3.364-2.408 4.139-7.085 1.733-10.449-2.407-3.364-7.084-4.139-10.448-1.733-1.676 1.2-3.872 1.992-6.203 2.502l11.679-17.606c2.287-3.446 1.346-8.094-2.101-10.38-3.447-2.287-8.096-1.347-10.38 2.101l-11.692 17.624c-.432-2.343-.552-4.678-.095-6.707.91-4.035-1.624-8.043-5.659-8.953-4.038-.912-8.043 1.625-8.953 5.659-2.167 9.614 1.583 20.033 4.241 25.778l-12.795 19.288c-.437-2.346-.561-4.677-.108-6.688.91-4.035-1.624-8.043-5.659-8.953-4.038-.908-8.043 1.625-8.953 5.659-2.167 9.614 1.583 20.033 4.241 25.777 0 0-6.732 10.198-6.872 10.483-.796.608-1.59 1.221-2.381 1.842-1.336 1.048-2.642 2.109-3.929 3.178-.006-1.056.084-2.031.281-2.902.91-4.035-1.624-8.043-5.659-8.953-4.039-.911-8.043 1.625-8.953 5.659-1.403 6.22-.302 12.795 1.343 18.171-10.519 10.811-18.845 22.509-24.837 34.958-.539 1.12-1.053 2.222-1.543 3.31-.052-.666-.1-1.339-.143-2.025-1.131-18.201 2.506-37.522 10.81-57.43 6.229-14.935 13.79-28.692 21.863-39.783 26.72-36.709 52.516-52.924 69.451-60.062zm-286.148-169.064c-.822 0-1.491-.669-1.491-1.491v-17.114c0-.822.669-1.491 1.491-1.491h221.77c.822 0 1.491.669 1.491 1.491v17.114c0 .822-.669 1.491-1.491 1.491zm186.777 14.978v30.797h-151.785v-30.797zm-201.639 104.99c0-12.131 5.203-23.706 14.275-31.758l30.935-27.457h161.073l30.936 27.457c9.072 8.052 14.275 19.628 14.275 31.758v24.083h-251.494zm0 39.061h251.494v25.007c-10.378 9.468-21.18 21.347-32.046 36.275-8.752 12.022-16.904 26.834-23.577 42.831-9.154 21.946-13.17 43.427-11.947 63.855h-183.924zm227.805 228.581h-204.117c-13.062 0-23.688-10.627-23.688-23.689v-21.946h185.718c.735 3.86 1.665 7.493 2.831 10.992 1.24 3.721 2.5 9.21 6.16 11.302 2.165 1.237 4.361 2.372 6.527 3.374 7.261 3.356 15.213 5.72 25.026 7.439 6.919 1.212 14.028 1.821 21.308 1.834-4.238 6.43-11.504 10.694-19.765 10.694z"/><path d="m401.377 377.349c2.766-3.075 2.514-7.81-.562-10.576s-7.81-2.514-10.576.562c-6.589 7.327-8.41 18.25-8.899 24.561l-20.589 10.573c.766-2.26 1.797-4.354 3.175-5.887 2.765-3.075 2.514-7.81-.562-10.576-3.074-2.765-7.811-2.514-10.576.562-6.589 7.327-8.41 18.25-8.899 24.561l-20.589 10.571c.766-2.26 1.797-4.354 3.175-5.887 2.766-3.075 2.514-7.81-.562-10.576-3.076-2.765-7.811-2.514-10.576.562-6.589 7.327-8.41 18.25-8.899 24.561l-12.362 6.348c-3.679 1.89-5.13 6.404-3.241 10.083 1.327 2.585 3.95 4.07 6.668 4.07 1.152 0 2.321-.267 3.415-.829l12.363-6.349c4.889 2.962 13.465 7.232 22.297 7.232.948 0 1.899-.05 2.847-.155 4.111-.456 7.075-4.158 6.618-8.268-.455-4.111-4.162-7.081-8.268-6.618-2.049.227-4.352-.156-6.634-.849l20.59-10.573c4.888 2.962 13.465 7.232 22.299 7.232.948 0 1.898-.05 2.847-.155 4.111-.455 7.075-4.158 6.618-8.268-.455-4.111-4.161-7.083-8.268-6.618-2.051.22-4.35-.162-6.627-.853l20.583-10.57c4.888 2.962 13.465 7.232 22.298 7.232.948 0 1.898-.05 2.847-.155 4.111-.455 7.075-4.158 6.618-8.268-.456-4.111-4.16-7.086-8.268-6.618-2.05.222-4.349-.16-6.628-.852l18.788-9.648c3.679-1.89 5.13-6.404 3.241-10.083-1.89-3.681-6.409-5.129-10.083-3.241l-18.795 9.652c.768-2.263 1.798-4.358 3.176-5.89z"/></g></g></svg>